<?xml version="1.0" standalone="no"?><!DOCTYPE svg PUBLIC "-//W3C//DTD SVG 1.1//EN" "http://www.w3.org/Graphics/SVG/1.1/DTD/svg11.dtd"><svg class="icon" width="200px" height="200.00px" viewBox="0 0 1024 1024" version="1.1" xmlns="http://www.w3.org/2000/svg"><path fill="#f4f4f5" d="M896 64 192 64C156.608 64 128 92.672 128 128l0 768c0 35.328 28.608 64 64 64l576 0c35.392 0 64-28.672 64-64L832 192 192 192 192 128l704 0 0 768c35.392 0 64-28.672 64-64L960 128C960 92.672 931.392 64 896 64zM512 384l64 0 0 192 128 0 0 192L512 768 512 384zM256 576l128 0L384 512 256 512 256 448l192 0 0 320L256 768 256 576zM576 640l64 0 0 64-64 0 0-64ZM320 640l64 0 0 64-64 0 0-64Z" /></svg>