<?xml version="1.0" standalone="no"?><!DOCTYPE svg PUBLIC "-//W3C//DTD SVG 1.1//EN" "http://www.w3.org/Graphics/SVG/1.1/DTD/svg11.dtd"><svg class="icon" width="200px" height="193.94px" viewBox="0 0 1056 1024" version="1.1" xmlns="http://www.w3.org/2000/svg"><path d="M280.060178 909.878639H140.033969c-49.009173 0-70.013105-31.622586-70.013105-70.013104V140.026209c0-62.13663 12.018916-70.013105 70.013105-70.013104h560.104837c54.143468 0 71.004957 18.145063 71.004957 70.013104v93.700872c0 48.892485 70.013105 55.193664 70.013105 0V140.026209c0-103.269329-33.372913-140.026209-141.193094-140.026209H140.033969C71.362782 0 0.00776 8.401573 0.00776 136.933964v725.68583a135.708735 135.708735 0 0 0 5.834425 40.840977A110.212296 110.212296 0 0 0 113.604022 980.183465c85.649365 0.350066 120.42254 0 166.339468 0s42.824682-70.304826 0.116688-70.304826z" fill="#467CFD" /><path d="M210.338795 209.514216c-50.292747 0-52.509828 70.946613 0 70.946612h420.078628c48.134009 0 55.777107-70.888268 0-70.946612zM323.118238 419.436841H210.338795c-50.292747 0-52.509828 70.946613 0 70.946613h112.779443c48.134009 0 55.777107-70.888268 0-70.946613z" fill="#467CFD" /><path d="M771.37714 382.213207l0.81682 287.228762H1056.038755a282.444533 282.444533 0 0 0-277.60196-287.228762z" fill="#8BAEF7" /><path d="M718.925656 438.982166a304.031907 304.031907 0 0 0-301.406415 294.871859 290.145975 290.145975 0 0 0 290.145974 290.145975 303.915219 303.915219 0 0 0 294.871859-301.348071h-283.611418z" fill="#467CFD" /></svg>