<?xml version="1.0" standalone="no"?><!DOCTYPE svg PUBLIC "-//W3C//DTD SVG 1.1//EN" "http://www.w3.org/Graphics/SVG/1.1/DTD/svg11.dtd"><svg class="icon" width="200px" height="200.00px" viewBox="0 0 1024 1024" version="1.1" xmlns="http://www.w3.org/2000/svg"><path fill="#34bfa3" d="M496.53333333 985.70666667c27.41333333-128.21333333 128.32-223.36 248.64-223.36S966.4 857.49333333 993.81333333 985.70666667h-54.82666666c-25.38666667-98.34666667-102.72-170.02666667-193.92-170.02666667s-168.53333333 71.68-193.92 170.02666667h-54.61333334z m94.08-378.02666667c0-85.44 69.22666667-154.66666667 154.66666667-154.66666667s154.66666667 69.22666667 154.66666667 154.66666667-69.22666667 154.66666667-154.66666667 154.66666667-154.66666667-69.22666667-154.66666667-154.66666667z m53.33333334 0c0 55.89333333 45.44 101.33333333 101.33333333 101.33333333s101.33333333-45.44 101.33333333-101.33333333-45.44-101.33333333-101.33333333-101.33333333-101.33333333 45.54666667-101.33333333 101.33333333zM115.62666667 932.37333333h276.16v53.33333334H62.29333333v-874.66666667h229.33333334V38.29333333h384v72.74666667h229.33333333v293.86666667h-53.33333333V164.37333333h-176v65.92h-384v-65.92h-176v768z m229.33333333-755.41333333h277.33333333v-85.33333333h-277.33333333v85.33333333z m-101.33333333 403.09333333h271.68v-53.33333333H243.62666667v53.33333333z m0-160.74666666h480v-53.33333334h-480v53.33333334z" /></svg>