<?xml version="1.0" standalone="no"?><!DOCTYPE svg PUBLIC "-//W3C//DTD SVG 1.1//EN" "http://www.w3.org/Graphics/SVG/1.1/DTD/svg11.dtd"><svg class="icon" width="200px" height="200.00px" viewBox="0 0 1024 1024" version="1.1" xmlns="http://www.w3.org/2000/svg"><path fill="#40c9c6" d="M722.995 541.05c83.58-43.31 140.734-130.544 140.734-231.177 0-143.755-116.537-260.28-260.28-260.28-143.75 0-260.286 116.53-260.286 260.28 0 99.425 55.772 185.8 137.718 229.632-174.065 52.06-303.135 214.753-298.814 399.728 0 36.46 49.29 31.447 49.29 1.808 0-204.831 166.052-370.883 370.888-370.883 204.83 0 370.883 166.057 370.883 370.883 0 24.852 43.269 21.1 43.269-1.808 4.08-183.219-122.122-344.448-293.402-398.182zM599.24 522.06c-5.028 0-10.015 0.206-15.007 0.39-108.754-9.15-194.181-100.26-194.181-211.38 0-117.191 95.001-212.187 212.193-212.187 117.192 0 217.487 95.001 217.487 212.188 0 111.641-91.033 203.08-200.975 211.497a411.674 411.674 0 0 0-19.517-0.507zM336.43 552.05c0.338 0 0.67 0.025 1.004 0.025 30.56 0 31.221-49.643-1.004-49.643-0.824 0-1.638-0.046-2.463-0.057l-0.046-0.937c-4.29 0-8.53 0.18-12.764 0.343-91.105-7.214-167.004-78.284-167.004-170.741 0-97.587 84.536-176.691 182.277-176.691 32.277 0 23.772-41.048-9.595-41.048-119.9 0-217.093 97.04-217.093 216.735 0 79.55 47.631 151.383 114.76 190.659C91.397 569.42 3.676 704.722 7.168 854.103c0 30.372 46.403 26.189 46.403 1.505 0-170.562 112.015-303.534 282.86-303.534v-0.025z"  /></svg>